<svg id="Layer_1" data-name="Layer 1" xmlns="http://www.w3.org/2000/svg" xmlns:xlink="http://www.w3.org/1999/xlink" viewBox="0 0 297.45 290.1"><defs><style>.cls-1{fill:url(#linear-gradient);}.cls-2{fill:url(#linear-gradient-2);}.cls-3{fill:url(#linear-gradient-3);}.cls-4{fill:url(#linear-gradient-4);}.cls-5{fill:url(#linear-gradient-5);}.cls-6{fill:url(#linear-gradient-6);}.cls-7{fill:url(#linear-gradient-7);}.cls-8{fill:url(#linear-gradient-8);}.cls-9{fill:url(#linear-gradient-9);}.cls-10{fill:url(#linear-gradient-10);}.cls-11{fill:url(#linear-gradient-11);}.cls-12{fill:url(#linear-gradient-12);}.cls-13{fill:url(#linear-gradient-13);}.cls-14{fill:url(#linear-gradient-14);}.cls-15{fill:url(#linear-gradient-15);}.cls-16{fill:url(#linear-gradient-16);}</style><linearGradient id="linear-gradient" x1="79.75" y1="220.81" x2="305.36" y2="71.46" gradientUnits="userSpaceOnUse"><stop offset="0.2" stop-color="#a53d3c"/><stop offset="0.8" stop-color="#dba85f"/></linearGradient><linearGradient id="linear-gradient-2" x1="55.27" y1="183.82" x2="280.88" y2="34.47" xlink:href="#linear-gradient"/><linearGradient id="linear-gradient-3" x1="36.5" y1="155.46" x2="262.11" y2="6.11" xlink:href="#linear-gradient"/><linearGradient id="linear-gradient-4" x1="39.35" y1="159.78" x2="264.96" y2="10.43" xlink:href="#linear-gradient"/><linearGradient id="linear-gradient-5" x1="91.36" y1="238.34" x2="316.97" y2="89" xlink:href="#linear-gradient"/><linearGradient id="linear-gradient-6" x1="44.23" y1="167.14" x2="269.84" y2="17.8" xlink:href="#linear-gradient"/><linearGradient id="linear-gradient-7" x1="23.75" y1="136.21" x2="249.36" y2="-13.14" xlink:href="#linear-gradient"/><linearGradient id="linear-gradient-8" x1="48.08" y1="172.97" x2="273.69" y2="23.62" xlink:href="#linear-gradient"/><linearGradient id="linear-gradient-9" x1="62.96" y1="195.44" x2="288.57" y2="46.09" xlink:href="#linear-gradient"/><linearGradient id="linear-gradient-10" x1="92.36" y1="239.86" x2="317.97" y2="90.51" xlink:href="#linear-gradient"/><linearGradient id="linear-gradient-11" x1="64.5" y1="197.76" x2="290.11" y2="48.42" xlink:href="#linear-gradient"/><linearGradient id="linear-gradient-12" x1="21.05" y1="258.9" x2="181.26" y2="415.64" xlink:href="#linear-gradient"/><linearGradient id="linear-gradient-13" x1="77.13" y1="201.59" x2="237.33" y2="358.32" xlink:href="#linear-gradient"/><linearGradient id="linear-gradient-14" x1="101.47" y1="176.71" x2="261.67" y2="333.45" xlink:href="#linear-gradient"/><linearGradient id="linear-gradient-15" x1="140.32" y1="136.99" x2="300.53" y2="293.73" xlink:href="#linear-gradient"/><linearGradient id="linear-gradient-16" x1="45.95" y1="233.45" x2="206.16" y2="390.19" xlink:href="#linear-gradient"/></defs><path class="cls-1" d="M148.45,218.11a5.07,5.07,0,0,1,0-10.13,98.87,98.87,0,0,0,83.43-45.24l-13.81-28.16.66-2a76.14,76.14,0,0,0-4.95-59.78,5.07,5.07,0,0,1,8.94-4.77A86.32,86.32,0,0,1,229,133.83l14.47,29.5L242,165.7A109,109,0,0,1,148.45,218.11Z"/><path class="cls-2" d="M180,158.55a5.06,5.06,0,0,1-2.8-9.28A49,49,0,0,0,165.87,62.1a5.07,5.07,0,0,1,3.26-9.6,59.1,59.1,0,0,1,13.65,105.21A5,5,0,0,1,180,158.55Z"/><path class="cls-3" d="M138.14,172.79l-15.52,18.34L119,189.88a88.21,88.21,0,0,1-17.4-8.11,86.07,86.07,0,0,1-28-120.14A88.77,88.77,0,0,1,99.51,35l17-29.78,2.2-.65a109.18,109.18,0,0,1,81,7.36,3.9,3.9,0,0,1,.35.19,5.44,5.44,0,0,1,2,7.25,5.69,5.69,0,0,1-7.58,2.37A97.89,97.89,0,0,0,124,14.53l-16.1,28.16-1.17.75A77.79,77.79,0,0,0,83,67.38a75.28,75.28,0,0,0,24.47,105,78.38,78.38,0,0,0,11.61,5.76l14.38-17,3.09.42c3.09.41,12.78.92,20.48-1.65a5.51,5.51,0,1,1,3.48,10.45C152.11,173.18,142.88,173.1,138.14,172.79Z"/><path class="cls-4" d="M139.74,46.05a5.45,5.45,0,0,1-1.78,10A53.7,53.7,0,0,0,103.29,80a52.35,52.35,0,0,0,17.43,72.9,5.4,5.4,0,0,1,1.8,7.53,5.66,5.66,0,0,1-7.69,1.79,63.18,63.18,0,0,1-21-88,64.88,64.88,0,0,1,41.84-28.91A5.69,5.69,0,0,1,139.74,46.05Z"/><path class="cls-5" d="M206.83,160.21a14.84,14.84,0,0,0-20.19,4.69,13.91,13.91,0,0,0-2,9.82c-13.44,7-27,10-42.19,8.6a5.57,5.57,0,0,0-6.11,4.93,5.5,5.5,0,0,0,5,6c17.55,1.64,33.64-1.92,49.15-10.18a10.63,10.63,0,0,0,.89.61A14.9,14.9,0,0,0,211.56,180,14.24,14.24,0,0,0,206.83,160.21Zm-4.79,14a3.52,3.52,0,0,1-4.78,1.12,3.38,3.38,0,0,1-1.13-4.71,3.54,3.54,0,0,1,4.79-1.12A3.38,3.38,0,0,1,202,174.24Z"/><path class="cls-6" d="M186.69,206.37a5.64,5.64,0,0,0-7-3.53,104.71,104.71,0,0,1-85.91-10.13C45.4,163.44,30.49,101.06,60.47,53.62A103.55,103.55,0,0,1,75.78,34.79a15.12,15.12,0,0,0,18.93-5.6A14.49,14.49,0,0,0,89.9,9a15.19,15.19,0,0,0-20.6,4.76,14.38,14.38,0,0,0-1.18,13.05A112.12,112.12,0,0,0,51,47.89a109.47,109.47,0,0,0-14.15,84.62,111,111,0,0,0,51,69.51,116.2,116.2,0,0,0,95.25,11.26A5.5,5.5,0,0,0,186.69,206.37ZM78.82,19.54A3.79,3.79,0,0,1,84,18.34a3.66,3.66,0,0,1,1.23,5.09A3.83,3.83,0,0,1,80,24.64,3.67,3.67,0,0,1,78.82,19.54Z"/><path class="cls-7" d="M206.72,33.44A14.52,14.52,0,0,0,191,34a87.39,87.39,0,0,0-62.79-8.54A5.51,5.51,0,0,0,124,32.06a5.59,5.59,0,0,0,6.75,4,76.09,76.09,0,0,1,54.35,7.27,13.79,13.79,0,0,0,6.57,13.84,14.45,14.45,0,0,0,19.6-4.53A13.8,13.8,0,0,0,206.72,33.44Zm-4.91,13.45a3.11,3.11,0,0,1-4.22,1,3,3,0,0,1-1-4.12,3.07,3.07,0,0,1,4.19-1A2.94,2.94,0,0,1,201.81,46.89Z"/><path class="cls-8" d="M177.86,121.78a5.14,5.14,0,0,1,.23,5.92,37.38,37.38,0,0,1-5.11,6.37l-.08.07a36.51,36.51,0,0,1-15.71,9.24,37.66,37.66,0,0,1-11.69,1.48,37.15,37.15,0,0,1-24.74-10.54A36.49,36.49,0,0,1,111,118.25a37.24,37.24,0,0,1,68.06-29A5.28,5.28,0,0,1,174.28,97L174,97a5.33,5.33,0,0,1-4.45-2.74,26.43,26.43,0,0,0-46.85,2.54,25,25,0,0,0-2.3,9.21,26.47,26.47,0,0,0,15.53,25.74,24.42,24.42,0,0,0,9.18,2.27,26.46,26.46,0,0,0,18.45-6,25.81,25.81,0,0,0,4.4-4.63,13.44,13.44,0,0,0,.87-1.26,5.48,5.48,0,0,1,2.28-2,3.33,3.33,0,0,0-.39,1.61,3.6,3.6,0,1,0,7.19,0Z"/><path class="cls-9" d="M174.26,109.3a12.46,12.46,0,0,0-12.46,12.46,12.18,12.18,0,0,0,1.71,6.27,12.52,12.52,0,0,0,10.75,6.19,12.46,12.46,0,1,0,0-24.92Zm-3.59,12.46a3.33,3.33,0,0,1,.39-1.61,3.59,3.59,0,0,1,6.8,1.61v0a3.6,3.6,0,1,1-7.19,0Z"/><path class="cls-10" d="M251.94,120a14.26,14.26,0,1,0,14.26,14.26A14.25,14.25,0,0,0,251.94,120Zm0,17.46a3.2,3.2,0,1,1,3.2-3.2A3.2,3.2,0,0,1,251.94,137.42Z"/><path class="cls-11" d="M247,122.21a15.81,15.81,0,0,1,3.66-.45,15.5,15.5,0,0,1,6.43,1.4,109.66,109.66,0,0,0-24.05-84.45,5.06,5.06,0,0,0-7.81,6.44A99.63,99.63,0,0,1,247,122.21Z"/><path class="cls-12" d="M0,264.36c0-15,11.44-25.74,26.82-25.74,8.15,0,15.16,2.93,19.81,8.36l-6,5.65a17.59,17.59,0,0,0-13.38-5.86c-10.36,0-17.87,7.29-17.87,17.59S16.88,282,27.24,282A17.42,17.42,0,0,0,40.62,276l6,5.72C42,287.17,35,290.1,26.75,290.1,11.44,290.1,0,279.31,0,264.36Z"/><path class="cls-13" d="M136.64,239.33h9.3v50.06h-9.3Z"/><path class="cls-14" d="M173.75,239.33h21.88c16.23,0,27.32,10,27.32,25s-11.09,25-27.32,25H173.75Zm21.45,42.19c11.16,0,18.38-6.79,18.38-17.16s-7.22-17.16-18.38-17.16H183v34.32Z"/><path class="cls-15" d="M243.53,264.36c0-14.8,11.45-25.74,27-25.74s27,10.87,27,25.74-11.44,25.74-27,25.74S243.53,279.16,243.53,264.36Zm44.55,0c0-10.23-7.51-17.59-17.59-17.59s-17.59,7.36-17.59,17.59S260.41,282,270.49,282,288.08,274.59,288.08,264.36Z"/><polygon class="cls-16" points="93.39 239.33 84.23 239.33 61.7 289.39 71.29 289.39 76.22 277.8 76.25 277.8 79.37 270.51 79.37 270.51 88.74 248.63 98.17 270.51 98.14 270.51 106.26 289.39 115.98 289.39 93.39 239.33"/></svg>