<svg xmlns="http://www.w3.org/2000/svg" xmlns:xlink="http://www.w3.org/1999/xlink" viewBox="0 0 297.45 51.49"><defs><style>.cls-1{fill:url(#linear-gradient);}.cls-2{fill:url(#linear-gradient-2);}.cls-3{fill:url(#linear-gradient-3);}.cls-4{fill:url(#linear-gradient-4);}.cls-5{fill:url(#linear-gradient-5);}</style><linearGradient id="linear-gradient" x1="21.05" y1="20.29" x2="181.26" y2="177.02" gradientUnits="userSpaceOnUse"><stop offset="0.2" stop-color="#a53d3c"/><stop offset="0.8" stop-color="#dba85f"/></linearGradient><linearGradient id="linear-gradient-2" x1="77.13" y1="-37.03" x2="237.33" y2="119.71" xlink:href="#linear-gradient"/><linearGradient id="linear-gradient-3" x1="101.47" y1="-61.9" x2="261.67" y2="94.83" xlink:href="#linear-gradient"/><linearGradient id="linear-gradient-4" x1="140.32" y1="-101.62" x2="300.53" y2="55.11" xlink:href="#linear-gradient"/><linearGradient id="linear-gradient-5" x1="45.95" y1="-5.16" x2="206.16" y2="151.57" xlink:href="#linear-gradient"/></defs><g id="Layer_2" data-name="Layer 2"><g id="Layer_1-2" data-name="Layer 1"><path class="cls-1" d="M0,25.74C0,10.8,11.44,0,26.82,0,35,0,42,2.93,46.63,8.37l-6,5.65A17.57,17.57,0,0,0,27.24,8.15c-10.36,0-17.87,7.3-17.87,17.59s7.51,17.6,17.87,17.6A17.43,17.43,0,0,0,40.62,37.4l6,5.72C42,48.56,35,51.49,26.75,51.49,11.44,51.49,0,40.69,0,25.74Z"/><path class="cls-2" d="M136.64.72h9.3V50.77h-9.3Z"/><path class="cls-3" d="M173.75.72h21.88c16.23,0,27.32,10,27.32,25s-11.09,25-27.32,25H173.75ZM195.2,42.91c11.16,0,18.38-6.8,18.38-17.17S206.36,8.58,195.2,8.58H183V42.91Z"/><path class="cls-4" d="M243.53,25.74C243.53,10.94,255,0,270.49,0s27,10.87,27,25.74-11.44,25.75-27,25.75S243.53,40.55,243.53,25.74Zm44.55,0c0-10.22-7.51-17.59-17.59-17.59S252.9,15.52,252.9,25.74s7.51,17.6,17.59,17.6S288.08,36,288.08,25.74Z"/><polygon class="cls-5" points="93.39 0.71 84.23 0.71 61.7 50.77 71.29 50.77 76.22 39.19 76.25 39.19 79.37 31.89 79.37 31.89 88.74 10.01 98.17 31.89 98.14 31.89 106.26 50.77 115.98 50.77 93.39 0.71"/></g></g></svg>