<svg id="Layer_1" data-name="Layer 1" xmlns="http://www.w3.org/2000/svg" viewBox="0 0 232.45 218.73"><defs><style>.cls-1{fill:#fff;}</style></defs><path class="cls-1" d="M114.7,218.11a5.07,5.07,0,1,1,0-10.13,98.87,98.87,0,0,0,83.43-45.24l-13.82-28.16.67-2A76.14,76.14,0,0,0,180,72.83,5.07,5.07,0,0,1,189,68.06a86.23,86.23,0,0,1,6.25,65.77l14.48,29.5-1.46,2.37A109,109,0,0,1,114.7,218.11Z" transform="translate(0)"/><path class="cls-1" d="M146.23,158.55a5.06,5.06,0,0,1-2.8-9.28A49,49,0,0,0,132.12,62.1a5.07,5.07,0,1,1,3.26-9.6A59.1,59.1,0,0,1,149,157.71,5.06,5.06,0,0,1,146.23,158.55Z" transform="translate(0)"/><path class="cls-1" d="M104.39,172.79,88.86,191.13l-3.66-1.25a88.21,88.21,0,0,1-17.4-8.11,86,86,0,0,1-28-120.14A88.65,88.65,0,0,1,65.76,35l17-29.78L85,4.57a109.18,109.18,0,0,1,81,7.36,3.9,3.9,0,0,1,.35.19,5.44,5.44,0,0,1,2,7.25,5.7,5.7,0,0,1-7.59,2.37,97.85,97.85,0,0,0-70.43-7.21L74.16,42.69,73,43.44a77.68,77.68,0,0,0-23.7,23.94,75.27,75.27,0,0,0,24.47,105,77.89,77.89,0,0,0,11.61,5.76l14.38-17,3.09.42c3.08.41,12.77.92,20.48-1.65a5.51,5.51,0,1,1,3.48,10.45C118.35,173.18,109.13,173.1,104.39,172.79Z" transform="translate(0)"/><path class="cls-1" d="M106,46.05a5.45,5.45,0,0,1-1.78,10A53.74,53.74,0,0,0,69.53,80,52.36,52.36,0,0,0,87,152.92a5.4,5.4,0,0,1,1.8,7.53,5.66,5.66,0,0,1-7.69,1.79,63.18,63.18,0,0,1-21-88,64.86,64.86,0,0,1,41.84-28.91A5.69,5.69,0,0,1,106,46.05Z" transform="translate(0)"/><path class="cls-1" d="M173.07,160.21a14.83,14.83,0,0,0-20.18,4.69,13.91,13.91,0,0,0-2,9.82c-13.44,7-27,10-42.19,8.6a5.57,5.57,0,0,0-6.11,4.93,5.5,5.5,0,0,0,5,6c17.55,1.64,33.64-1.92,49.14-10.18.29.21.57.41.9.61A14.9,14.9,0,0,0,177.81,180,14.24,14.24,0,0,0,173.07,160.21Zm-4.78,14a3.53,3.53,0,0,1-4.79,1.12,3.39,3.39,0,0,1-1.12-4.71,3.53,3.53,0,0,1,4.78-1.12A3.38,3.38,0,0,1,168.29,174.24Z" transform="translate(0)"/><path class="cls-1" d="M152.94,206.37a5.64,5.64,0,0,0-7-3.53A104.73,104.73,0,0,1,60,192.71C11.65,163.44-3.26,101.06,26.72,53.62A103.92,103.92,0,0,1,42,34.79,15.13,15.13,0,0,0,61,29.19,14.49,14.49,0,0,0,56.15,9a15.19,15.19,0,0,0-20.6,4.76,14.38,14.38,0,0,0-1.18,13.05A112.57,112.57,0,0,0,17.2,47.89,109.5,109.5,0,0,0,3.06,132.51a111,111,0,0,0,51,69.51,116.23,116.23,0,0,0,95.26,11.26A5.51,5.51,0,0,0,152.94,206.37ZM45.07,19.54a3.79,3.79,0,0,1,5.17-1.2,3.66,3.66,0,0,1,1.22,5.09,3.82,3.82,0,0,1-5.19,1.21A3.66,3.66,0,0,1,45.07,19.54Z" transform="translate(0)"/><path class="cls-1" d="M173,33.44a14.52,14.52,0,0,0-15.76.53,87.39,87.39,0,0,0-62.79-8.54,5.51,5.51,0,0,0-4.14,6.63,5.58,5.58,0,0,0,6.75,4,76.09,76.09,0,0,1,54.35,7.27A13.77,13.77,0,0,0,158,57.18a14.45,14.45,0,0,0,19.6-4.53A13.8,13.8,0,0,0,173,33.44Zm-4.91,13.45a3.11,3.11,0,0,1-4.22,1,2.94,2.94,0,0,1-1-4.12,3.07,3.07,0,0,1,4.19-1A3,3,0,0,1,168.06,46.89Z" transform="translate(0)"/><path class="cls-1" d="M144.11,121.78a5.14,5.14,0,0,1,.23,5.92,37.44,37.44,0,0,1-5.12,6.37l-.07.07a36.57,36.57,0,0,1-15.71,9.24,37.66,37.66,0,0,1-11.69,1.48A37.19,37.19,0,0,1,87,134.32a36.47,36.47,0,0,1-9.72-16.07,37.24,37.24,0,0,1,68.06-29A5.28,5.28,0,0,1,140.53,97l-.33,0a5.36,5.36,0,0,1-4.46-2.74A26.42,26.42,0,0,0,88.9,96.79,25,25,0,0,0,86.59,106a26.5,26.5,0,0,0,15.53,25.74,24.52,24.52,0,0,0,9.19,2.27,26.46,26.46,0,0,0,18.45-6,26.17,26.17,0,0,0,4.4-4.63,13.44,13.44,0,0,0,.87-1.26,5.42,5.42,0,0,1,2.28-2,3.33,3.33,0,0,0-.39,1.61,3.6,3.6,0,1,0,7.19,0Z" transform="translate(0)"/><path class="cls-1" d="M140.5,109.3A12.46,12.46,0,0,0,128,121.76a12.19,12.19,0,0,0,1.72,6.27,12.52,12.52,0,0,0,10.74,6.19,12.46,12.46,0,1,0,0-24.92Zm-3.58,12.46a3.33,3.33,0,0,1,.39-1.61,3.53,3.53,0,0,1,3.19-2,3.58,3.58,0,0,1,3.61,3.58v0a3.6,3.6,0,1,1-7.19,0Z" transform="translate(0)"/><path class="cls-1" d="M218.19,120a14.26,14.26,0,1,0,14.26,14.26A14.26,14.26,0,0,0,218.19,120Zm0,17.46a3.2,3.2,0,1,1,3.2-3.2A3.2,3.2,0,0,1,218.19,137.42Z" transform="translate(0)"/><path class="cls-1" d="M213.27,122.21a15.74,15.74,0,0,1,3.66-.45,15.5,15.5,0,0,1,6.43,1.4,109.66,109.66,0,0,0-24.05-84.45,5.06,5.06,0,0,0-7.81,6.44,99.7,99.7,0,0,1,22.72,63.31A101.7,101.7,0,0,1,213.27,122.21Z" transform="translate(0)"/></svg>